<?xml version="1.0" encoding="UTF-8" standalone="no"?>
<svg
   width="1386"
   height="779.625"
   viewBox="0 0 366.712 206.276"
   version="1.1"
   id="svg6144"
   sodipodi:docname="PagePartie_Masa.svg"
   inkscape:version="1.2.2 (732a01da63, 2022-12-09)"
   xmlns:inkscape="http://www.inkscape.org/namespaces/inkscape"
   xmlns:sodipodi="http://sodipodi.sourceforge.net/DTD/sodipodi-0.dtd"
   xmlns="http://www.w3.org/2000/svg"
   xmlns:svg="http://www.w3.org/2000/svg">
  <sodipodi:namedview
     id="namedview6146"
     pagecolor="#ffffff"
     bordercolor="#000000"
     borderopacity="0.25"
     inkscape:showpageshadow="2"
     inkscape:pageopacity="0.0"
     inkscape:pagecheckerboard="0"
     inkscape:deskcolor="#d1d1d1"
     showgrid="false"
     inkscape:zoom="0.87301587"
     inkscape:cx="601.93637"
     inkscape:cy="389.45455"
     inkscape:window-width="1920"
     inkscape:window-height="1017"
     inkscape:window-x="-8"
     inkscape:window-y="-8"
     inkscape:window-maximized="1"
     inkscape:current-layer="svg6144" />
  <defs
     id="defs6036">
    <clipPath
       id="a"
       clipPathUnits="userSpaceOnUse">
      <path
         d="M311.918 227.477h93.334v94.522h-93.334z"
         id="path5961" />
    </clipPath>
    <clipPath
       id="b"
       clipPathUnits="userSpaceOnUse">
      <path
         d="M466.375 261.12h32.169v32.169h-32.169z"
         id="path5964" />
    </clipPath>
    <clipPath
       id="c"
       clipPathUnits="userSpaceOnUse">
      <path
         d="M588.222 473.833h109.732v50.575H588.222Z"
         id="path5967" />
    </clipPath>
    <clipPath
       id="d"
       clipPathUnits="userSpaceOnUse">
      <path
         d="M588.222 473.833h109.732v50.575H588.222Z"
         id="path5970" />
    </clipPath>
    <clipPath
       id="e"
       clipPathUnits="userSpaceOnUse">
      <path
         d="M519.473 519.27c-6.445-3.488-10.842-10.304-10.842-18.133h.447c0 7.403 4.068 14.204 10.611 17.734a20.055 20.055 0 0 0 9.549 2.419c1.643 0 3.278-.196 4.858-.587l-5.48-20.377 19.356 8.417c.839-1.587 1.566-5.026 1.566-7.585h.454c0 2.838-.874 6.69-1.838 8.151l-18.86-8.2 5.354 19.908a20.65 20.65 0 0 1-5.41.72c-3.404 0-6.781-.852-9.765-2.467"
         id="path5973" />
    </clipPath>
    <clipPath
       id="f"
       clipPathUnits="userSpaceOnUse">
      <path
         d="M471.401 428.579h256.325v181.446H471.401Z"
         id="path5976" />
    </clipPath>
    <clipPath
       id="g"
       clipPathUnits="userSpaceOnUse">
      <path
         d="M588.222 473.833h109.732v50.575H588.222Z"
         id="path5979" />
    </clipPath>
    <clipPath
       id="h"
       clipPathUnits="userSpaceOnUse">
      <path
         d="M521.472 493.749h35.07v35.077h-35.07z"
         id="path5982" />
    </clipPath>
    <clipPath
       id="i"
       clipPathUnits="userSpaceOnUse">
      <path
         d="M588.222 473.833h109.732v50.575H588.222Z"
         id="path5985" />
    </clipPath>
    <clipPath
       id="j"
       clipPathUnits="userSpaceOnUse">
      <path
         d="M299.762 417.772h235.984v108.761H299.762Z"
         id="path5988" />
    </clipPath>
    <clipPath
       id="k"
       clipPathUnits="userSpaceOnUse">
      <path
         d="M299.762 417.772h235.984v108.761H299.762Z"
         id="path5991" />
    </clipPath>
    <clipPath
       id="l"
       clipPathUnits="userSpaceOnUse">
      <path
         d="M333.911 495.413a26.975 26.975 0 0 1-2.151-1.044c-8.53-4.607-14.339-13.628-14.339-23.982h.593c0 4.722 1.249 9.256 3.513 13.211a26.672 26.672 0 0 0 5.561 6.805 26.891 26.891 0 0 0 4.948 3.443c.77.416 1.558.792 2.363 1.129v.642a22.878 22.878 0 0 1-.488-.204"
         id="path5994" />
    </clipPath>
    <clipPath
       id="n"
       clipPathUnits="userSpaceOnUse">
      <path
         d="M299.762 417.772h235.984v108.761H299.762Z"
         id="path5997" />
    </clipPath>
    <clipPath
       id="o"
       clipPathUnits="userSpaceOnUse">
      <path
         d="M370.484 492.763a33.678 33.678 0 0 1-1.749 1.887l-.084.084-.022.022-.077.076-.009.009-.084.082-.022.022a4.822 4.822 0 0 0-.073.071 2.833 2.833 0 0 1-.196.188l-.009.009-.086.082-.021.02a4.76 4.76 0 0 0-.074.07l-.013.012-.087.081-.018.017a5.352 5.352 0 0 0-.079.074l-.01.009-.092.084-.007.007-.084.077-.014.012a7.172 7.172 0 0 1-.089.081l-.012.011-.083.075-.011.009-.092.082a.065.065 0 0 1-.009.008l-.085.076-.011.009-.191.168a15.488 15.488 0 0 1-.199.171l-.004.004a30.499 30.499 0 0 1-4.615 3.261 35.255 35.255 0 0 0 8.311-6.95"
         id="path6000" />
    </clipPath>
    <clipPath
       id="q"
       clipPathUnits="userSpaceOnUse">
      <path
         d="M299.762 417.772h235.984v108.761H299.762Z"
         id="path6003" />
    </clipPath>
    <clipPath
       id="r"
       clipPathUnits="userSpaceOnUse">
      <path
         d="M151.912 515.481c-13.869-7.493-23.32-22.159-23.32-38.998h.965c0 15.93 8.745 30.547 22.809 38.152a43.364 43.364 0 0 0 20.545 5.194c3.537 0 7.046-.433 10.45-1.272l-11.786-43.815 41.62 18.098c1.811-3.411 3.377-10.807 3.377-16.308h.964c0 6.109-1.866 14.392-3.942 17.531l-40.565-17.636 11.52 42.815a44.36 44.36 0 0 1-11.638 1.545 44.241 44.241 0 0 1-20.999-5.306"
         id="path6006" />
    </clipPath>
    <clipPath
       id="s"
       clipPathUnits="userSpaceOnUse">
      <path
         d="M48.519 320.447h551.264v390.209H48.519Z"
         id="path6009" />
    </clipPath>
    <clipPath
       id="t"
       clipPathUnits="userSpaceOnUse">
      <path
         d="M299.762 417.772h235.984v108.761H299.762Z"
         id="path6012" />
    </clipPath>
    <clipPath
       id="u"
       clipPathUnits="userSpaceOnUse">
      <path
         d="M156.211 460.601h75.425v75.425h-75.425z"
         id="path6015" />
    </clipPath>
    <clipPath
       id="w"
       clipPathUnits="userSpaceOnUse">
      <path
         d="M299.762 417.772h235.984v108.761H299.762Z"
         id="path6018" />
    </clipPath>
    <radialGradient
       id="m"
       spreadMethod="pad"
       gradientTransform="matrix(18.50168 18.67206 14.93765 -14.80135 359.514 485.68)"
       gradientUnits="userSpaceOnUse"
       r="1"
       cy="0"
       cx="0"
       fy="0"
       fx="0">
      <stop
         offset="0"
         style="stop-opacity:1;stop-color:#fff"
         id="stop6021" />
      <stop
         offset="1"
         style="stop-opacity:1;stop-color:#55595d"
         id="stop6023" />
    </radialGradient>
    <radialGradient
       id="v"
       spreadMethod="pad"
       gradientTransform="matrix(30.08587 30.36292 24.29034 -24.0687 197.048 501.353)"
       gradientUnits="userSpaceOnUse"
       r="1"
       cy="0"
       cx="0"
       fy="0"
       fx="0">
      <stop
         offset="0"
         style="stop-opacity:1;stop-color:#fff"
         id="stop6026" />
      <stop
         offset="1"
         style="stop-opacity:1;stop-color:#55595d"
         id="stop6028" />
    </radialGradient>
    <linearGradient
       id="p"
       spreadMethod="pad"
       gradientTransform="matrix(29.25354 0 0 -29.25354 348.478 490.513)"
       gradientUnits="userSpaceOnUse"
       y2="0"
       x2="1"
       y1="0"
       x1="0">
      <stop
         offset="0"
         style="stop-opacity:1;stop-color:#55585c"
         id="stop6031" />
      <stop
         offset="1"
         style="stop-opacity:1;stop-color:#55585c"
         id="stop6033" />
    </linearGradient>
  </defs>
  <rect
     style="opacity:1;fill:#dadada;fill-opacity:1;stroke-width:0.264584"
     id="rect9497"
     width="366.71289"
     height="170.62756"
     x="0.076525696"
     y="35.762085" />
</svg>
