<?xml version="1.0" encoding="UTF-8"?>
<!DOCTYPE svg PUBLIC "-//W3C//DTD SVG 1.1//EN" "http://www.w3.org/Graphics/SVG/1.1/DTD/svg11.dtd">
<svg xmlns="http://www.w3.org/2000/svg" version="1.1" width="368px" height="235px" style="shape-rendering:geometricPrecision; text-rendering:geometricPrecision; image-rendering:optimizeQuality; fill-rule:evenodd; clip-rule:evenodd" xmlns:xlink="http://www.w3.org/1999/xlink">
<g><path style="opacity:1" fill="#fdfdfd" d="M -0.5,-0.5 C 122.167,-0.5 244.833,-0.5 367.5,-0.5C 367.5,77.8333 367.5,156.167 367.5,234.5C 244.833,234.5 122.167,234.5 -0.5,234.5C -0.5,156.167 -0.5,77.8333 -0.5,-0.5 Z"/></g>
<g><path style="opacity:1" fill="#0b0692" d="M 43.5,35.5 C 43.1034,34.475 42.4368,34.3083 41.5,35C 38.8975,36.5536 37.7308,38.7202 38,41.5C 41.4621,41.983 41.9621,43.1496 39.5,45C 39.8333,45.1667 40.1667,45.3333 40.5,45.5C 42.5813,44.1997 44.248,42.533 45.5,40.5C 45.8333,40.5 46.1667,40.5 46.5,40.5C 47.4674,39.1938 48.8007,38.5271 50.5,38.5C 50.5,38.8333 50.5,39.1667 50.5,39.5C 42.3235,45.4762 42.6569,46.4762 51.5,42.5C 54.797,41.1453 55.1304,41.6453 52.5,44C 50.7254,45.4389 48.7254,46.4389 46.5,47C 38.8406,47.4997 31.1739,47.6664 23.5,47.5C 23.5,39.5 23.5,31.5 23.5,23.5C 33.5056,23.3335 43.5056,23.5002 53.5,24C 49.2286,27.2443 48.5619,31.0776 51.5,35.5C 48.9564,35.9491 46.2898,35.9491 43.5,35.5 Z"/></g>
<g><path style="opacity:1" fill="#e11117" d="M 65.5,23.5 C 73.8333,23.5 82.1667,23.5 90.5,23.5C 90.5,31.5 90.5,39.5 90.5,47.5C 80.4607,47.7577 70.4607,47.4244 60.5,46.5C 60.8153,42.1996 63.1486,40.533 67.5,41.5C 67.3184,39.4086 67.6518,37.4086 68.5,35.5C 67.085,31.5912 66.085,27.5912 65.5,23.5 Z"/></g>
<g><path style="opacity:1" fill="#483da8" d="M 43.5,35.5 C 46.3172,36.7811 48.6505,37.7811 50.5,38.5C 48.8007,38.5271 47.4674,39.1938 46.5,40.5C 45.8953,38.9743 44.7286,37.9743 43,37.5C 40.9712,40.1262 41.8046,41.1262 45.5,40.5C 44.248,42.533 42.5813,44.1997 40.5,45.5C 40.1667,45.3333 39.8333,45.1667 39.5,45C 41.9621,43.1496 41.4621,41.983 38,41.5C 37.7308,38.7202 38.8975,36.5536 41.5,35C 42.4368,34.3083 43.1034,34.475 43.5,35.5 Z"/></g>
<g><path style="opacity:1" fill="#ebebf6" d="M 46.5,40.5 C 46.1667,40.5 45.8333,40.5 45.5,40.5C 41.8046,41.1262 40.9712,40.1262 43,37.5C 44.7286,37.9743 45.8953,38.9743 46.5,40.5 Z"/></g>
<g><path style="opacity:1" fill="#bcbbe1" d="M 50.5,39.5 C 51.1098,40.391 51.4431,41.391 51.5,42.5C 42.6569,46.4762 42.3235,45.4762 50.5,39.5 Z"/></g>
<g><path style="opacity:1" fill="#323131" d="M 117.5,55.5 C 119.841,54.3027 121.841,54.9694 123.5,57.5C 123,57.8333 122.5,58.1667 122,58.5C 120.357,57.6854 118.857,56.6854 117.5,55.5 Z"/></g>
<g><path style="opacity:1" fill="#2b2a29" d="M 76.5,59.5 C 77.8333,59.5 79.1667,59.5 80.5,59.5C 80.5,65.5 80.5,71.5 80.5,77.5C 79.1667,77.5 77.8333,77.5 76.5,77.5C 76.5,71.5 76.5,65.5 76.5,59.5 Z"/></g>
<g><path style="opacity:1" fill="#5b5a59" d="M 139.5,60.5 C 137.167,60.5 134.833,60.5 132.5,60.5C 132.5,66.1667 132.5,71.8333 132.5,77.5C 131.51,71.69 131.177,65.69 131.5,59.5C 134.385,59.1936 137.052,59.5269 139.5,60.5 Z"/></g>
<g><path style="opacity:1" fill="#616060" d="M 158.5,62.5 C 156.012,60.6122 153.012,59.9455 149.5,60.5C 149.5,66.1667 149.5,71.8333 149.5,77.5C 148.51,71.69 148.177,65.69 148.5,59.5C 152.167,59.5 155.833,59.5 159.5,59.5C 159.737,60.791 159.404,61.791 158.5,62.5 Z"/></g>
<g><path style="opacity:1" fill="#282827" d="M 46.5,59.5 C 47.8333,59.5 49.1667,59.5 50.5,59.5C 50.5,65.5 50.5,71.5 50.5,77.5C 49.1667,77.5 47.8333,77.5 46.5,77.5C 46.5,71.5 46.5,65.5 46.5,59.5 Z"/></g>
<g><path style="opacity:1" fill="#191817" d="M 66.5,70.5 C 66.7828,71.2891 67.2828,71.9558 68,72.5C 68.499,68.1794 68.6657,63.8461 68.5,59.5C 69.5,59.5 70.5,59.5 71.5,59.5C 71.5,65.5 71.5,71.5 71.5,77.5C 69.712,77.7852 68.0453,77.4519 66.5,76.5C 64.4887,73.1389 62.4887,69.8056 60.5,66.5C 60.44,65.9569 60.1067,65.6236 59.5,65.5C 58.5091,69.4454 58.1758,73.4454 58.5,77.5C 57.5,77.5 56.5,77.5 55.5,77.5C 55.5,71.5 55.5,65.5 55.5,59.5C 57.288,59.2148 58.9547,59.5481 60.5,60.5C 62.5113,63.8611 64.5113,67.1944 66.5,70.5 Z"/></g>
<g><path style="opacity:1" fill="#929190" d="M 68.5,59.5 C 68.6657,63.8461 68.499,68.1794 68,72.5C 67.2828,71.9558 66.7828,71.2891 66.5,70.5C 67.1667,66.8333 67.8333,63.1667 68.5,59.5 Z"/></g>
<g><path style="opacity:1" fill="#242423" d="M 116.5,59.5 C 120.167,59.5 123.833,59.5 127.5,59.5C 127.5,60.5 127.5,61.5 127.5,62.5C 125.167,62.5 122.833,62.5 120.5,62.5C 120.5,64.1667 120.5,65.8333 120.5,67.5C 128.5,68.1667 128.5,68.8333 120.5,69.5C 120.5,71.1667 120.5,72.8333 120.5,74.5C 122.833,74.5 125.167,74.5 127.5,74.5C 127.5,75.5 127.5,76.5 127.5,77.5C 123.833,77.5 120.167,77.5 116.5,77.5C 116.5,71.5 116.5,65.5 116.5,59.5 Z"/></g>
<g><path style="opacity:1" fill="#1b1a1a" d="M 139.5,60.5 C 141.017,60.5106 142.184,61.1772 143,62.5C 143.778,65.275 143.278,67.775 141.5,70C 142.701,72.2339 144.035,74.4006 145.5,76.5C 144.167,77.8333 142.833,77.8333 141.5,76.5C 137.415,68.4122 135.415,68.7455 135.5,77.5C 134.5,77.5 133.5,77.5 132.5,77.5C 132.5,71.8333 132.5,66.1667 132.5,60.5C 134.833,60.5 137.167,60.5 139.5,60.5 Z"/></g>
<g><path style="opacity:1" fill="#e0e0e0" d="M 135.5,62.5 C 136.833,62.5 138.167,62.5 139.5,62.5C 139.5,64.1667 139.5,65.8333 139.5,67.5C 138.167,67.5 136.833,67.5 135.5,67.5C 135.5,65.8333 135.5,64.1667 135.5,62.5 Z"/></g>
<g><path style="opacity:1" fill="#1a1918" d="M 158.5,62.5 C 156.5,62.5 154.5,62.5 152.5,62.5C 152.5,63.8333 152.5,65.1667 152.5,66.5C 154.5,66.5 156.5,66.5 158.5,66.5C 158.5,67.5 158.5,68.5 158.5,69.5C 156.5,69.5 154.5,69.5 152.5,69.5C 152.5,71.1667 152.5,72.8333 152.5,74.5C 154.833,74.5 157.167,74.5 159.5,74.5C 159.5,75.5 159.5,76.5 159.5,77.5C 156.167,77.5 152.833,77.5 149.5,77.5C 149.5,71.8333 149.5,66.1667 149.5,60.5C 153.012,59.9455 156.012,60.6122 158.5,62.5 Z"/></g>
<g><path style="opacity:1" fill="#8d8c8c" d="M 113.5,62.5 C 112.081,63.4511 110.415,63.7845 108.5,63.5C 108.819,68.3633 108.486,73.03 107.5,77.5C 107.5,72.5 107.5,67.5 107.5,62.5C 109.5,62.5 111.5,62.5 113.5,62.5 Z"/></g>
<g><path style="opacity:1" fill="#191818" d="M 113.5,62.5 C 111.5,62.5 109.5,62.5 107.5,62.5C 107.5,67.5 107.5,72.5 107.5,77.5C 106.5,77.5 105.5,77.5 104.5,77.5C 104.5,72.5 104.5,67.5 104.5,62.5C 102.5,62.5 100.5,62.5 98.5,62.5C 98.5,61.5 98.5,60.5 98.5,59.5C 103.5,59.5 108.5,59.5 113.5,59.5C 113.5,60.5 113.5,61.5 113.5,62.5 Z"/></g>
<g><path style="opacity:1" fill="#1f1e1d" d="M 87.5,59.5 C 90.9828,58.9159 93.9828,59.7492 96.5,62C 95.9535,62.9246 95.2868,63.7579 94.5,64.5C 92.3591,61.9814 90.3591,61.9814 88.5,64.5C 90.7049,66.5255 93.2049,68.1922 96,69.5C 97.1412,77.0079 93.9745,79.5079 86.5,77C 84.0072,75.4174 84.1738,73.9174 87,72.5C 88.4443,74.1554 90.2776,74.822 92.5,74.5C 92.6495,73.448 92.4828,72.448 92,71.5C 85.368,69.3028 83.868,65.3028 87.5,59.5 Z"/></g>
<g><path style="opacity:1" fill="#222120" d="M 23.5,59.5 C 25.288,59.2148 26.9547,59.5481 28.5,60.5C 29.4411,62.7721 30.7745,64.7721 32.5,66.5C 33.9587,64.417 35.2921,62.2503 36.5,60C 38.1341,59.5065 39.8008,59.3398 41.5,59.5C 41.5,65.5 41.5,71.5 41.5,77.5C 40.1667,77.5 38.8333,77.5 37.5,77.5C 37.6655,73.4862 37.4988,69.4862 37,65.5C 34.4382,72.8201 31.4382,73.1535 28,66.5C 27.5014,70.1516 27.3347,73.8183 27.5,77.5C 26.1667,77.5 24.8333,77.5 23.5,77.5C 23.5,71.5 23.5,65.5 23.5,59.5 Z"/></g>
<g><path style="opacity:1" fill="#838282" d="M 60.5,66.5 C 59.8333,70.1667 59.1667,73.8333 58.5,77.5C 58.1758,73.4454 58.5091,69.4454 59.5,65.5C 60.1067,65.6236 60.44,65.9569 60.5,66.5 Z"/></g>
<g><path style="opacity:1" fill="#4a4948" d="M 53.5,88.5 C 51.0122,86.6122 48.0122,85.9455 44.5,86.5C 44.5,91.8333 44.5,97.1667 44.5,102.5C 48.0122,103.055 51.0122,102.388 53.5,100.5C 54.404,101.209 54.7373,102.209 54.5,103.5C 50.8333,103.5 47.1667,103.5 43.5,103.5C 43.5,97.5 43.5,91.5 43.5,85.5C 47.1667,85.5 50.8333,85.5 54.5,85.5C 54.7373,86.791 54.404,87.791 53.5,88.5 Z"/></g>
<g><path style="opacity:1" fill="#434241" d="M 75.5,100.5 C 76.404,101.209 76.7373,102.209 76.5,103.5C 72.8333,103.5 69.1667,103.5 65.5,103.5C 65.5,97.5 65.5,91.5 65.5,85.5C 66.8333,85.5 68.1667,85.5 69.5,85.5C 69.5,90.1667 69.5,94.8333 69.5,99.5C 71.7354,99.2053 73.7354,99.5386 75.5,100.5 Z"/></g>
<g><path style="opacity:1" fill="#121110" d="M 75.5,100.5 C 73.0122,102.388 70.0122,103.055 66.5,102.5C 66.1718,97.1254 66.5052,91.7921 67.5,86.5C 68.4933,91.1196 68.8266,95.7863 68.5,100.5C 70.8333,100.5 73.1667,100.5 75.5,100.5 Z"/></g>
<g><path style="opacity:1" fill="#282726" d="M 138.5,85.5 C 139.833,85.5 141.167,85.5 142.5,85.5C 142.5,91.5 142.5,97.5 142.5,103.5C 141.167,103.5 139.833,103.5 138.5,103.5C 138.5,97.5 138.5,91.5 138.5,85.5 Z"/></g>
<g><path style="opacity:1" fill="#191817" d="M 185.5,85.5 C 186.5,85.5 187.5,85.5 188.5,85.5C 188.5,90.5 188.5,95.5 188.5,100.5C 190.833,100.5 193.167,100.5 195.5,100.5C 195.5,101.5 195.5,102.5 195.5,103.5C 192.167,103.5 188.833,103.5 185.5,103.5C 185.5,97.5 185.5,91.5 185.5,85.5 Z"/></g>
<g><path style="opacity:1" fill="#262524" d="M 231.5,85.5 C 234.518,85.3354 237.518,85.502 240.5,86C 244.085,88.9465 244.419,92.2798 241.5,96C 243.152,98.3227 244.819,100.656 246.5,103C 244.741,103.798 243.074,103.631 241.5,102.5C 237.415,94.4122 235.415,94.7455 235.5,103.5C 234.167,103.5 232.833,103.5 231.5,103.5C 231.5,97.5 231.5,91.5 231.5,85.5 Z"/></g>
<g><path style="opacity:1" fill="#1a1a19" d="M 23.5,85.5 C 28.449,84.9589 33.1156,85.7922 37.5,88C 40.1667,92.3333 40.1667,96.6667 37.5,101C 33.1156,103.208 28.449,104.041 23.5,103.5C 23.5,97.5 23.5,91.5 23.5,85.5 Z"/></g>
<g><path style="opacity:1" fill="#f0f0f0" d="M 27.5,88.5 C 33.8057,87.7073 36.639,90.3739 36,96.5C 35.5776,98.4257 34.4109,99.4257 32.5,99.5C 30.8333,99.5 29.1667,99.5 27.5,99.5C 27.5,95.8333 27.5,92.1667 27.5,88.5 Z"/></g>
<g><path style="opacity:1" fill="#201f1f" d="M 77.5,85.5 C 78.8734,85.3433 80.2068,85.51 81.5,86C 77.8875,94.6721 76.5542,94.5055 77.5,85.5 Z"/></g>
<g><path style="opacity:1" fill="#e5e5e5" d="M 235.5,88.5 C 236.833,88.5 238.167,88.5 239.5,88.5C 240.244,91.9496 238.91,93.6162 235.5,93.5C 235.5,91.8333 235.5,90.1667 235.5,88.5 Z"/></g>
<g><path style="opacity:1" fill="#6d6c6b" d="M 27.5,88.5 C 27.5,92.1667 27.5,95.8333 27.5,99.5C 29.1667,99.5 30.8333,99.5 32.5,99.5C 30.7354,100.461 28.7354,100.795 26.5,100.5C 26.1832,96.2984 26.5166,92.2984 27.5,88.5 Z"/></g>
<g><path style="opacity:1" fill="#858484" d="M 209.5,88.5 C 208.081,89.4511 206.415,89.7845 204.5,89.5C 204.819,94.3633 204.486,99.03 203.5,103.5C 203.5,98.5 203.5,93.5 203.5,88.5C 205.5,88.5 207.5,88.5 209.5,88.5 Z"/></g>
<g><path style="opacity:1" fill="#191817" d="M 209.5,88.5 C 207.5,88.5 205.5,88.5 203.5,88.5C 203.5,93.5 203.5,98.5 203.5,103.5C 202.5,103.5 201.5,103.5 200.5,103.5C 200.5,98.5 200.5,93.5 200.5,88.5C 198.833,88.5 197.167,88.5 195.5,88.5C 195.5,87.5 195.5,86.5 195.5,85.5C 200.167,85.5 204.833,85.5 209.5,85.5C 209.5,86.5 209.5,87.5 209.5,88.5 Z"/></g>
<g><path style="opacity:1" fill="#737271" d="M 116.5,100.5 C 116.5,98.1667 116.5,95.8333 116.5,93.5C 114.076,93.1924 111.743,93.5258 109.5,94.5C 110.949,95.1719 112.282,95.8386 113.5,96.5C 111.833,96.5 110.167,96.5 108.5,96.5C 108.5,95.1667 108.5,93.8333 108.5,92.5C 111.5,92.5 114.5,92.5 117.5,92.5C 117.806,95.3854 117.473,98.0521 116.5,100.5 Z"/></g>
<g><path style="opacity:1" fill="#1e1d1d" d="M 86.5,85.5 C 88.5,85.5 90.5,85.5 92.5,85.5C 94.0947,91.2825 96.0947,96.9492 98.5,102.5C 94.9263,103.861 93.2596,102.527 93.5,98.5C 90.7531,98.1866 88.0865,98.52 85.5,99.5C 84.7542,100.736 84.4208,102.07 84.5,103.5C 83.0222,103.762 81.6888,103.429 80.5,102.5C 82.7927,96.9192 84.7927,91.2525 86.5,85.5 Z"/></g>
<g><path style="opacity:1" fill="#e4e4e4" d="M 88.5,90.5 C 90.7409,91.2998 91.7409,92.9664 91.5,95.5C 90.1667,95.5 88.8333,95.5 87.5,95.5C 87.6287,93.7839 87.962,92.1172 88.5,90.5 Z"/></g>
<g><path style="opacity:1" fill="#1d1c1b" d="M 113.5,96.5 C 112.282,95.8386 110.949,95.1719 109.5,94.5C 111.743,93.5258 114.076,93.1924 116.5,93.5C 116.5,95.8333 116.5,98.1667 116.5,100.5C 114.668,102.894 112.168,103.894 109,103.5C 101.37,102.518 98.3703,98.1848 100,90.5C 104.889,84.6791 110.389,84.0124 116.5,88.5C 115.758,89.2868 114.925,89.9535 114,90.5C 106.577,86.9189 103.244,89.2522 104,97.5C 107.939,101.735 111.106,101.401 113.5,96.5 Z"/></g>
<g><path style="opacity:1" fill="#1e1d1c" d="M 150.5,85.5 C 154.584,85.0431 158.417,85.7098 162,87.5C 162.601,88.9653 162.101,89.9653 160.5,90.5C 154.823,86.8854 151.156,88.2188 149.5,94.5C 151.156,100.781 154.823,102.115 160.5,98.5C 162.488,99.2888 162.821,100.455 161.5,102C 152.896,105.698 147.563,103.032 145.5,94C 146.137,90.5369 147.803,87.7035 150.5,85.5 Z"/></g>
<g><path style="opacity:1" fill="#21201f" d="M 121.5,85.5 C 124.187,85.3359 126.854,85.5026 129.5,86C 134.438,88.6047 134.771,91.7713 130.5,95.5C 131.921,98.0094 133.588,100.343 135.5,102.5C 134.277,103.614 132.944,103.781 131.5,103C 129.994,100.667 128.327,98.5 126.5,96.5C 125.526,98.7427 125.192,101.076 125.5,103.5C 124.167,103.5 122.833,103.5 121.5,103.5C 121.5,97.5 121.5,91.5 121.5,85.5 Z"/></g>
<g><path style="opacity:1" fill="#f1f1f1" d="M 125.5,88.5 C 129.035,88.3369 130.035,89.6702 128.5,92.5C 127.5,92.5 126.5,92.5 125.5,92.5C 125.5,91.1667 125.5,89.8333 125.5,88.5 Z"/></g>
<g><path style="opacity:1" fill="#81807f" d="M 125.5,88.5 C 125.5,89.8333 125.5,91.1667 125.5,92.5C 126.5,92.5 127.5,92.5 128.5,92.5C 127.432,93.4345 126.099,93.7678 124.5,93.5C 124.216,91.5853 124.549,89.9187 125.5,88.5 Z"/></g>
<g><path style="opacity:1" fill="#201f1e" d="M 165.5,85.5 C 166.833,85.5 168.167,85.5 169.5,85.5C 169.334,90.1785 169.501,94.8452 170,99.5C 172,100.833 174,100.833 176,99.5C 176.499,94.8452 176.666,90.1785 176.5,85.5C 177.833,85.5 179.167,85.5 180.5,85.5C 180.666,89.8461 180.499,94.1794 180,98.5C 177.511,103.416 173.677,104.749 168.5,102.5C 167.416,101.335 166.583,100.002 166,98.5C 165.501,94.1794 165.334,89.8461 165.5,85.5 Z"/></g>
<g><path style="opacity:1" fill="#222120" d="M 212.5,85.5 C 213.833,85.5 215.167,85.5 216.5,85.5C 216.334,90.1785 216.501,94.8452 217,99.5C 219.267,100.935 221.267,100.602 223,98.5C 223.499,94.1794 223.666,89.8461 223.5,85.5C 224.833,85.5 226.167,85.5 227.5,85.5C 227.666,89.8461 227.499,94.1794 227,98.5C 223.844,103.913 219.51,104.913 214,101.5C 212.661,96.2636 212.161,90.9302 212.5,85.5 Z"/></g>
<g><path style="opacity:1" fill="#1e1d1c" d="M 249.5,85.5 C 252.833,85.5 256.167,85.5 259.5,85.5C 259.5,86.5 259.5,87.5 259.5,88.5C 257.167,88.5 254.833,88.5 252.5,88.5C 252.5,89.8333 252.5,91.1667 252.5,92.5C 254.5,92.5 256.5,92.5 258.5,92.5C 258.5,93.5 258.5,94.5 258.5,95.5C 256.5,95.5 254.5,95.5 252.5,95.5C 252.5,97.1667 252.5,98.8333 252.5,100.5C 254.833,100.5 257.167,100.5 259.5,100.5C 259.5,101.5 259.5,102.5 259.5,103.5C 256.167,103.5 252.833,103.5 249.5,103.5C 249.5,97.5 249.5,91.5 249.5,85.5 Z"/></g>
<g><path style="opacity:1" fill="#161515" d="M 53.5,88.5 C 51.5,88.5 49.5,88.5 47.5,88.5C 47.5,89.8333 47.5,91.1667 47.5,92.5C 49.5,92.5 51.5,92.5 53.5,92.5C 53.5,93.5 53.5,94.5 53.5,95.5C 51.5,95.5 49.5,95.5 47.5,95.5C 47.5,97.1667 47.5,98.8333 47.5,100.5C 49.5,100.5 51.5,100.5 53.5,100.5C 51.0122,102.388 48.0122,103.055 44.5,102.5C 44.5,97.1667 44.5,91.8333 44.5,86.5C 48.0122,85.9455 51.0122,86.6122 53.5,88.5 Z"/></g>
<g><path style="opacity:1" fill="#131211" d="M 338.5,106.5 C 341.999,106.259 342.332,107.092 339.5,109C 338.5,109.667 337.5,109.667 336.5,109C 337.381,108.292 338.047,107.458 338.5,106.5 Z"/></g>
<g><path style="opacity:1" fill="#1f1e1e" d="M 24.5,111.5 C 27.5,111.5 30.5,111.5 33.5,111.5C 33.5,112.5 33.5,113.5 33.5,114.5C 31.5,114.5 29.5,114.5 27.5,114.5C 27.5,115.833 27.5,117.167 27.5,118.5C 29.1667,118.5 30.8333,118.5 32.5,118.5C 32.5,119.5 32.5,120.5 32.5,121.5C 30.8333,121.5 29.1667,121.5 27.5,121.5C 27.5,123.167 27.5,124.833 27.5,126.5C 29.5,126.5 31.5,126.5 33.5,126.5C 31.0122,128.388 28.0122,129.055 24.5,128.5C 24.5,122.833 24.5,117.167 24.5,111.5 Z"/></g>
<g><path style="opacity:1" fill="#161514" d="M 46.5,114.5 C 45.5139,118.97 45.1805,123.637 45.5,128.5C 44.5,128.5 43.5,128.5 42.5,128.5C 42.5,123.833 42.5,119.167 42.5,114.5C 40.8333,114.5 39.1667,114.5 37.5,114.5C 37.5,113.5 37.5,112.5 37.5,111.5C 42.1667,111.5 46.8333,111.5 51.5,111.5C 51.5,112.5 51.5,113.5 51.5,114.5C 49.8333,114.5 48.1667,114.5 46.5,114.5 Z"/></g>
<g><path style="opacity:1" fill="#797878" d="M 104.5,111.5 C 104.5,117.167 104.5,122.833 104.5,128.5C 107.833,128.5 111.167,128.5 114.5,128.5C 111.038,129.482 107.371,129.815 103.5,129.5C 103.177,123.31 103.51,117.31 104.5,111.5 Z"/></g>
<g><path style="opacity:1" fill="#1d1d1c" d="M 228.5,126.5 C 225.663,128.402 222.329,129.069 218.5,128.5C 218.5,122.833 218.5,117.167 218.5,111.5C 221.833,111.5 225.167,111.5 228.5,111.5C 228.5,112.5 228.5,113.5 228.5,114.5C 226.5,114.5 224.5,114.5 222.5,114.5C 222.5,115.833 222.5,117.167 222.5,118.5C 224.167,118.5 225.833,118.5 227.5,118.5C 227.5,119.5 227.5,120.5 227.5,121.5C 225.5,121.5 223.5,121.5 221.5,121.5C 221.5,123.167 221.5,124.833 221.5,126.5C 223.833,126.5 226.167,126.5 228.5,126.5 Z"/></g>
<g><path style="opacity:1" fill="#a1a0a0" d="M 279.5,111.5 C 279.5,117.167 279.5,122.833 279.5,128.5C 280.5,128.5 281.5,128.5 282.5,128.5C 282.335,124.818 282.501,121.152 283,117.5C 283.717,118.044 284.217,118.711 284.5,119.5C 283.521,122.625 283.187,125.958 283.5,129.5C 281.833,129.5 280.167,129.5 278.5,129.5C 278.177,123.31 278.51,117.31 279.5,111.5 Z"/></g>
<g><path style="opacity:1" fill="#171716" d="M 323.5,114.5 C 322.514,118.97 322.181,123.637 322.5,128.5C 321.5,128.5 320.5,128.5 319.5,128.5C 319.5,123.833 319.5,119.167 319.5,114.5C 317.833,114.5 316.167,114.5 314.5,114.5C 314.5,113.5 314.5,112.5 314.5,111.5C 319.167,111.5 323.833,111.5 328.5,111.5C 328.5,112.5 328.5,113.5 328.5,114.5C 326.833,114.5 325.167,114.5 323.5,114.5 Z"/></g>
<g><path style="opacity:1" fill="#939292" d="M 332.5,111.5 C 332.5,117.167 332.5,122.833 332.5,128.5C 335.833,128.5 339.167,128.5 342.5,128.5C 339.038,129.482 335.371,129.815 331.5,129.5C 331.177,123.31 331.51,117.31 332.5,111.5 Z"/></g>
<g><path style="opacity:1" fill="#3d3c3b" d="M 24.5,111.5 C 24.5,117.167 24.5,122.833 24.5,128.5C 28.0122,129.055 31.0122,128.388 33.5,126.5C 34.404,127.209 34.7373,128.209 34.5,129.5C 30.8333,129.5 27.1667,129.5 23.5,129.5C 23.1771,123.31 23.5104,117.31 24.5,111.5 Z"/></g>
<g><path style="opacity:1" fill="#767675" d="M 62.5,111.5 C 62.5,117.167 62.5,122.833 62.5,128.5C 65.5,128.5 68.5,128.5 71.5,128.5C 68.3752,129.479 65.0419,129.813 61.5,129.5C 61.1771,123.31 61.5104,117.31 62.5,111.5 Z"/></g>
<g><path style="opacity:1" fill="#999998" d="M 82.5,111.5 C 82.5,117.167 82.5,122.833 82.5,128.5C 85.8333,128.5 89.1667,128.5 92.5,128.5C 89.0381,129.482 85.3714,129.815 81.5,129.5C 81.1771,123.31 81.5104,117.31 82.5,111.5 Z"/></g>
<g><path style="opacity:1" fill="#b3b3b3" d="M 233.5,111.5 C 233.5,117.167 233.5,122.833 233.5,128.5C 234.5,128.5 235.5,128.5 236.5,128.5C 236.5,126.167 236.5,123.833 236.5,121.5C 237.791,121.263 238.791,121.596 239.5,122.5C 237.656,124.279 236.99,126.612 237.5,129.5C 235.833,129.5 234.167,129.5 232.5,129.5C 232.177,123.31 232.51,117.31 233.5,111.5 Z"/></g>
<g><path style="opacity:1" fill="#a6a6a6" d="M 270.5,111.5 C 270.5,117.167 270.5,122.833 270.5,128.5C 271.5,128.5 272.5,128.5 273.5,128.5C 273.5,122.833 273.5,117.167 273.5,111.5C 274.49,117.31 274.823,123.31 274.5,129.5C 272.833,129.5 271.167,129.5 269.5,129.5C 269.177,123.31 269.51,117.31 270.5,111.5 Z"/></g>
<g><path style="opacity:1" fill="#121110" d="M 270.5,111.5 C 271.5,111.5 272.5,111.5 273.5,111.5C 273.5,117.167 273.5,122.833 273.5,128.5C 272.5,128.5 271.5,128.5 270.5,128.5C 270.5,122.833 270.5,117.167 270.5,111.5 Z"/></g>
<g><path style="opacity:1" fill="#201f1e" d="M 300.5,111.5 C 303.833,111.5 307.167,111.5 310.5,111.5C 310.5,112.5 310.5,113.5 310.5,114.5C 308.5,114.5 306.5,114.5 304.5,114.5C 304.5,115.833 304.5,117.167 304.5,118.5C 306.167,118.5 307.833,118.5 309.5,118.5C 309.5,119.5 309.5,120.5 309.5,121.5C 307.833,121.5 306.167,121.5 304.5,121.5C 304.5,123.167 304.5,124.833 304.5,126.5C 306.5,126.5 308.5,126.5 310.5,126.5C 310.5,127.5 310.5,128.5 310.5,129.5C 307.167,129.5 303.833,129.5 300.5,129.5C 300.5,123.5 300.5,117.5 300.5,111.5 Z"/></g>
<g><path style="opacity:1" fill="#717170" d="M 46.5,114.5 C 46.5,119.5 46.5,124.5 46.5,129.5C 44.901,129.768 43.5676,129.434 42.5,128.5C 43.5,128.5 44.5,128.5 45.5,128.5C 45.1805,123.637 45.5139,118.97 46.5,114.5 Z"/></g>
<g><path style="opacity:1" fill="#636262" d="M 323.5,114.5 C 323.5,119.5 323.5,124.5 323.5,129.5C 321.901,129.768 320.568,129.434 319.5,128.5C 320.5,128.5 321.5,128.5 322.5,128.5C 322.181,123.637 322.514,118.97 323.5,114.5 Z"/></g>
<g><path style="opacity:1" fill="#191817" d="M 82.5,111.5 C 85.8333,111.5 89.1667,111.5 92.5,111.5C 92.5,112.5 92.5,113.5 92.5,114.5C 90.1667,114.5 87.8333,114.5 85.5,114.5C 85.5,115.833 85.5,117.167 85.5,118.5C 87.5,118.5 89.5,118.5 91.5,118.5C 91.5,119.5 91.5,120.5 91.5,121.5C 89.5,121.5 87.5,121.5 85.5,121.5C 85.5,123.167 85.5,124.833 85.5,126.5C 88.3878,125.99 90.7211,126.656 92.5,128.5C 89.1667,128.5 85.8333,128.5 82.5,128.5C 82.5,122.833 82.5,117.167 82.5,111.5 Z"/></g>
<g><path style="opacity:1" fill="#212020" d="M 233.5,111.5 C 236.518,111.335 239.518,111.502 242.5,112C 246.434,115.123 246.434,118.29 242.5,121.5C 243.921,124.009 245.588,126.343 247.5,128.5C 246.277,129.614 244.944,129.781 243.5,129C 241.942,126.948 240.608,124.781 239.5,122.5C 238.791,121.596 237.791,121.263 236.5,121.5C 236.5,123.833 236.5,126.167 236.5,128.5C 235.5,128.5 234.5,128.5 233.5,128.5C 233.5,122.833 233.5,117.167 233.5,111.5 Z"/></g>
<g><path style="opacity:1" fill="#f0f0f0" d="M 237.5,114.5 C 240.5,114.167 241.833,115.5 241.5,118.5C 240.167,118.5 238.833,118.5 237.5,118.5C 237.5,117.167 237.5,115.833 237.5,114.5 Z"/></g>
<g><path style="opacity:1" fill="#1b1a1a" d="M 279.5,111.5 C 281.288,111.215 282.955,111.548 284.5,112.5C 286.418,116.004 288.584,119.337 291,122.5C 291.499,118.848 291.665,115.182 291.5,111.5C 292.833,111.5 294.167,111.5 295.5,111.5C 295.5,117.5 295.5,123.5 295.5,129.5C 293.712,129.785 292.045,129.452 290.5,128.5C 288.441,125.459 286.441,122.459 284.5,119.5C 284.217,118.711 283.717,118.044 283,117.5C 282.501,121.152 282.335,124.818 282.5,128.5C 281.5,128.5 280.5,128.5 279.5,128.5C 279.5,122.833 279.5,117.167 279.5,111.5 Z"/></g>
<g><path style="opacity:1" fill="#181716" d="M 332.5,111.5 C 335.833,111.5 339.167,111.5 342.5,111.5C 342.5,112.5 342.5,113.5 342.5,114.5C 340.167,114.5 337.833,114.5 335.5,114.5C 335.5,115.833 335.5,117.167 335.5,118.5C 337.5,118.5 339.5,118.5 341.5,118.5C 341.5,119.5 341.5,120.5 341.5,121.5C 339.5,121.5 337.5,121.5 335.5,121.5C 335.5,123.167 335.5,124.833 335.5,126.5C 338.388,125.99 340.721,126.656 342.5,128.5C 339.167,128.5 335.833,128.5 332.5,128.5C 332.5,122.833 332.5,117.167 332.5,111.5 Z"/></g>
<g><path style="opacity:1" fill="#212120" d="M 147.5,110.5 C 150.765,110.299 153.431,111.466 155.5,114C 154.892,114.87 154.059,115.37 153,115.5C 151.234,114.767 149.401,114.433 147.5,114.5C 147.33,115.822 147.663,116.989 148.5,118C 155.951,119.651 157.285,123.317 152.5,129C 150.167,129.667 147.833,129.667 145.5,129C 142.921,127.388 142.921,125.888 145.5,124.5C 147.173,126.086 149.173,126.753 151.5,126.5C 151.762,125.022 151.429,123.689 150.5,122.5C 142.574,119.847 141.574,115.847 147.5,110.5 Z"/></g>
<g><path style="opacity:1" fill="#1d1c1b" d="M 62.5,111.5 C 68.7013,110.285 73.8679,111.952 78,116.5C 79.7165,122.74 77.5499,126.74 71.5,128.5C 68.5,128.5 65.5,128.5 62.5,128.5C 62.5,122.833 62.5,117.167 62.5,111.5 Z"/></g>
<g><path style="opacity:1" fill="#f4f4f4" d="M 65.5,114.5 C 73.8038,114.278 76.1372,117.778 72.5,125C 70.1902,125.497 67.8568,125.663 65.5,125.5C 65.5,121.833 65.5,118.167 65.5,114.5 Z"/></g>
<g><path style="opacity:1" fill="#242323" d="M 122.5,111.5 C 125.079,111.083 127.246,111.75 129,113.5C 130.833,118.5 132.667,123.5 134.5,128.5C 133.311,129.429 131.978,129.762 130.5,129.5C 130.843,125.866 129.177,124.199 125.5,124.5C 121.823,124.199 120.157,125.866 120.5,129.5C 119.022,129.762 117.689,129.429 116.5,128.5C 118.793,122.919 120.793,117.253 122.5,111.5 Z"/></g>
<g><path style="opacity:1" fill="#dcdcdc" d="M 124.5,115.5 C 126.614,116.784 127.614,118.784 127.5,121.5C 126.167,121.5 124.833,121.5 123.5,121.5C 123.833,119.5 124.167,117.5 124.5,115.5 Z"/></g>
<g><path style="opacity:1" fill="#201f1e" d="M 255.5,111.5 C 257.467,111.261 259.301,111.594 261,112.5C 263.346,118.037 265.179,123.703 266.5,129.5C 263.459,129.594 261.793,128.094 261.5,125C 259.167,124.333 256.833,124.333 254.5,125C 254.207,128.094 252.541,129.594 249.5,129.5C 250.926,123.313 252.926,117.313 255.5,111.5 Z"/></g>
<g><path style="opacity:1" fill="#dfdfdf" d="M 257.5,115.5 C 258.725,116.937 259.725,118.604 260.5,120.5C 258.833,121.833 257.167,121.833 255.5,120.5C 256.456,118.925 257.123,117.258 257.5,115.5 Z"/></g>
<g><path style="opacity:1" fill="#212020" d="M 197.5,111.5 C 198.978,111.238 200.311,111.571 201.5,112.5C 203.278,116.39 204.778,120.39 206,124.5C 207.862,120.581 209.529,116.581 211,112.5C 212.011,111.663 213.178,111.33 214.5,111.5C 213.173,117.314 211.34,122.981 209,128.5C 207.301,129.406 205.467,129.739 203.5,129.5C 201.702,123.438 199.702,117.438 197.5,111.5 Z"/></g>
<g><path style="opacity:1" fill="#131211" d="M 104.5,111.5 C 105.5,111.5 106.5,111.5 107.5,111.5C 107.5,116.5 107.5,121.5 107.5,126.5C 110.388,125.99 112.721,126.656 114.5,128.5C 111.167,128.5 107.833,128.5 104.5,128.5C 104.5,122.833 104.5,117.167 104.5,111.5 Z"/></g>
<g><path style="opacity:1" fill="#1e1e1d" d="M 164.5,110.5 C 173.53,110.359 177.363,114.692 176,123.5C 172.608,129.467 167.774,130.967 161.5,128C 155.602,120.988 156.602,115.155 164.5,110.5 Z"/></g>
<g><path style="opacity:1" fill="#f2f2f2" d="M 164.5,114.5 C 171.503,113.673 174.003,116.673 172,123.5C 168.667,127.5 165.333,127.5 162,123.5C 160.927,119.9 161.76,116.9 164.5,114.5 Z"/></g>
<g><path style="opacity:1" fill="#191817" d="M 180.5,111.5 C 181.5,111.5 182.5,111.5 183.5,111.5C 183.334,115.846 183.501,120.179 184,124.5C 186.333,127.167 188.667,127.167 191,124.5C 191.499,120.179 191.666,115.846 191.5,111.5C 192.5,111.5 193.5,111.5 194.5,111.5C 194.666,116.179 194.499,120.845 194,125.5C 191.487,129.212 187.987,130.378 183.5,129C 182.667,128.167 181.833,127.333 181,126.5C 180.501,121.511 180.334,116.511 180.5,111.5 Z"/></g>
<g><path style="opacity:1" fill="#696868" d="M 228.5,126.5 C 229.404,127.209 229.737,128.209 229.5,129.5C 225.629,129.815 221.962,129.482 218.5,128.5C 222.329,129.069 225.663,128.402 228.5,126.5 Z"/></g>
<g><path style="opacity:1" fill="#b2b2b2" d="M 88.5,137.5 C 88.5,143.167 88.5,148.833 88.5,154.5C 91.8333,154.5 95.1667,154.5 98.5,154.5C 95.0381,155.482 91.3714,155.815 87.5,155.5C 87.1771,149.31 87.5104,143.31 88.5,137.5 Z"/></g>
<g><path style="opacity:1" fill="#797978" d="M 82.5,137.5 C 83.4896,143.31 83.8229,149.31 83.5,155.5C 81.901,155.768 80.5676,155.434 79.5,154.5C 80.5,154.5 81.5,154.5 82.5,154.5C 82.5,148.833 82.5,143.167 82.5,137.5 Z"/></g>
<g><path style="opacity:1" fill="#989797" d="M 161.5,137.5 C 162.49,143.31 162.823,149.31 162.5,155.5C 160.901,155.768 159.568,155.434 158.5,154.5C 159.5,154.5 160.5,154.5 161.5,154.5C 161.5,148.833 161.5,143.167 161.5,137.5 Z"/></g>
<g><path style="opacity:1" fill="#adacac" d="M 167.5,137.5 C 167.5,143.167 167.5,148.833 167.5,154.5C 168.5,154.5 169.5,154.5 170.5,154.5C 170.192,152.076 170.526,149.743 171.5,147.5C 172.107,147.624 172.44,147.957 172.5,148.5C 171.532,150.607 171.198,152.941 171.5,155.5C 169.833,155.5 168.167,155.5 166.5,155.5C 166.177,149.31 166.51,143.31 167.5,137.5 Z"/></g>
<g><path style="opacity:1" fill="#b1b1b0" d="M 184.5,137.5 C 184.5,143.167 184.5,148.833 184.5,154.5C 187.833,154.5 191.167,154.5 194.5,154.5C 191.038,155.482 187.371,155.815 183.5,155.5C 183.177,149.31 183.51,143.31 184.5,137.5 Z"/></g>
<g><path style="opacity:1" fill="#171615" d="M 59.5,137.5 C 59.5,143.167 59.5,148.833 59.5,154.5C 58.5,154.5 57.5,154.5 56.5,154.5C 56.5,148.833 56.5,143.167 56.5,137.5C 57.5,137.5 58.5,137.5 59.5,137.5 Z"/></g>
<g><path style="opacity:1" fill="#7d7d7c" d="M 59.5,137.5 C 60.4896,143.31 60.8229,149.31 60.5,155.5C 58.901,155.768 57.5676,155.434 56.5,154.5C 57.5,154.5 58.5,154.5 59.5,154.5C 59.5,148.833 59.5,143.167 59.5,137.5 Z"/></g>
<g><path style="opacity:1" fill="#181817" d="M 65.5,137.5 C 69.9565,137.648 72.7898,139.981 74,144.5C 75.3767,142.246 76.8767,140.08 78.5,138C 79.7932,137.51 81.1266,137.343 82.5,137.5C 82.5,143.167 82.5,148.833 82.5,154.5C 81.5,154.5 80.5,154.5 79.5,154.5C 79.6653,150.818 79.4986,147.152 79,143.5C 77.9486,145.627 76.4486,147.293 74.5,148.5C 72.2847,148.084 70.9513,146.75 70.5,144.5C 70.2172,143.711 69.7172,143.044 69,142.5C 68.5012,146.486 68.3345,150.486 68.5,154.5C 67.5,154.5 66.5,154.5 65.5,154.5C 65.5,148.833 65.5,143.167 65.5,137.5 Z"/></g>
<g><path style="opacity:1" fill="#151413" d="M 88.5,137.5 C 92.3293,136.931 95.6627,137.598 98.5,139.5C 96.1667,139.5 93.8333,139.5 91.5,139.5C 91.2155,141.415 91.5489,143.081 92.5,144.5C 94.1667,144.5 95.8333,144.5 97.5,144.5C 97.5,145.5 97.5,146.5 97.5,147.5C 95.8333,147.5 94.1667,147.5 92.5,147.5C 91.5489,148.919 91.2155,150.585 91.5,152.5C 93.8333,152.5 96.1667,152.5 98.5,152.5C 98.5,153.167 98.5,153.833 98.5,154.5C 95.1667,154.5 91.8333,154.5 88.5,154.5C 88.5,148.833 88.5,143.167 88.5,137.5 Z"/></g>
<g><path style="opacity:1" fill="#1b1a19" d="M 103.5,137.5 C 105.288,137.215 106.955,137.548 108.5,138.5C 110.864,141.699 113.03,145.032 115,148.5C 115.499,144.848 115.665,141.182 115.5,137.5C 116.833,137.5 118.167,137.5 119.5,137.5C 119.5,143.5 119.5,149.5 119.5,155.5C 117.712,155.785 116.045,155.452 114.5,154.5C 112.489,151.139 110.489,147.806 108.5,144.5C 108.217,143.711 107.717,143.044 107,142.5C 106.501,146.486 106.334,150.486 106.5,154.5C 105.5,154.5 104.5,154.5 103.5,154.5C 103.5,148.833 103.5,143.167 103.5,137.5 Z"/></g>
<g><path style="opacity:1" fill="#100f0e" d="M 161.5,137.5 C 161.5,143.167 161.5,148.833 161.5,154.5C 160.5,154.5 159.5,154.5 158.5,154.5C 158.5,148.833 158.5,143.167 158.5,137.5C 159.5,137.5 160.5,137.5 161.5,137.5 Z"/></g>
<g><path style="opacity:1" fill="#7d7c7b" d="M 98.5,139.5 C 96.7354,140.461 94.7354,140.795 92.5,140.5C 92.5,141.833 92.5,143.167 92.5,144.5C 91.5489,143.081 91.2155,141.415 91.5,139.5C 93.8333,139.5 96.1667,139.5 98.5,139.5 Z"/></g>
<g><path style="opacity:1" fill="#838382" d="M 194.5,139.5 C 192.735,140.461 190.735,140.795 188.5,140.5C 188.5,141.833 188.5,143.167 188.5,144.5C 187.549,143.081 187.216,141.415 187.5,139.5C 189.833,139.5 192.167,139.5 194.5,139.5 Z"/></g>
<g><path style="opacity:1" fill="#888888" d="M 132.5,140.5 C 132.5,145.5 132.5,150.5 132.5,155.5C 130.901,155.768 129.568,155.434 128.5,154.5C 129.5,154.5 130.5,154.5 131.5,154.5C 131.181,149.637 131.514,144.97 132.5,140.5 Z"/></g>
<g><path style="opacity:1" fill="#181716" d="M 132.5,140.5 C 131.514,144.97 131.181,149.637 131.5,154.5C 130.5,154.5 129.5,154.5 128.5,154.5C 128.5,149.833 128.5,145.167 128.5,140.5C 126.5,140.5 124.5,140.5 122.5,140.5C 122.5,139.5 122.5,138.5 122.5,137.5C 127.5,137.5 132.5,137.5 137.5,137.5C 137.5,138.5 137.5,139.5 137.5,140.5C 135.833,140.5 134.167,140.5 132.5,140.5 Z"/></g>
<g><path style="opacity:1" fill="#aaa9a9" d="M 103.5,137.5 C 103.5,143.167 103.5,148.833 103.5,154.5C 104.5,154.5 105.5,154.5 106.5,154.5C 106.334,150.486 106.501,146.486 107,142.5C 107.717,143.044 108.217,143.711 108.5,144.5C 107.518,147.962 107.185,151.629 107.5,155.5C 105.833,155.5 104.167,155.5 102.5,155.5C 102.177,149.31 102.51,143.31 103.5,137.5 Z"/></g>
<g><path style="opacity:1" fill="#1c1b1a" d="M 167.5,137.5 C 170.518,137.335 173.518,137.502 176.5,138C 179.122,141.13 179.122,144.297 176.5,147.5C 177.921,150.009 179.588,152.343 181.5,154.5C 180.277,155.614 178.944,155.781 177.5,155C 175.97,152.648 174.303,150.481 172.5,148.5C 172.44,147.957 172.107,147.624 171.5,147.5C 170.526,149.743 170.192,152.076 170.5,154.5C 169.5,154.5 168.5,154.5 167.5,154.5C 167.5,148.833 167.5,143.167 167.5,137.5 Z"/></g>
<g><path style="opacity:1" fill="#e7e7e7" d="M 170.5,140.5 C 172.665,140.116 174.332,140.783 175.5,142.5C 174.332,144.217 172.665,144.884 170.5,144.5C 170.5,143.167 170.5,141.833 170.5,140.5 Z"/></g>
<g><path style="opacity:1" fill="#151514" d="M 184.5,137.5 C 188.329,136.931 191.663,137.598 194.5,139.5C 192.167,139.5 189.833,139.5 187.5,139.5C 187.216,141.415 187.549,143.081 188.5,144.5C 190.167,144.5 191.833,144.5 193.5,144.5C 193.5,145.5 193.5,146.5 193.5,147.5C 191.5,147.5 189.5,147.5 187.5,147.5C 187.5,149.167 187.5,150.833 187.5,152.5C 190.388,151.99 192.721,152.656 194.5,154.5C 191.167,154.5 187.833,154.5 184.5,154.5C 184.5,148.833 184.5,143.167 184.5,137.5 Z"/></g>
<g><path style="opacity:1" fill="#1f1e1d" d="M 27.5,137.5 C 29.5,137.5 31.5,137.5 33.5,137.5C 35.2004,143.242 37.2004,148.909 39.5,154.5C 38.3112,155.429 36.9778,155.762 35.5,155.5C 35.8435,151.866 34.1768,150.199 30.5,150.5C 29.1667,150.833 27.8333,151.167 26.5,151.5C 25.616,153.942 23.9493,154.775 21.5,154C 23.6005,148.531 25.6005,143.031 27.5,137.5 Z"/></g>
<g><path style="opacity:1" fill="#dadada" d="M 29.5,141.5 C 31.6138,142.784 32.6138,144.784 32.5,147.5C 31.1667,147.5 29.8333,147.5 28.5,147.5C 28.5172,145.435 28.8505,143.435 29.5,141.5 Z"/></g>
<g><path style="opacity:1" fill="#1e1d1c" d="M 143.5,137.5 C 145.467,137.261 147.301,137.594 149,138.5C 151.141,143.756 152.974,149.09 154.5,154.5C 151.5,154.833 150.167,153.5 150.5,150.5C 147.813,150.336 145.146,150.503 142.5,151C 142.207,154.094 140.541,155.594 137.5,155.5C 138.937,149.297 140.937,143.297 143.5,137.5 Z"/></g>
<g><path style="opacity:1" fill="#d8d8d8" d="M 145.5,141.5 C 147.043,142.736 148.043,144.402 148.5,146.5C 146.833,147.833 145.167,147.833 143.5,146.5C 144.456,144.925 145.123,143.258 145.5,141.5 Z"/></g>
<g><path style="opacity:1" fill="#a4a4a4" d="M 65.5,137.5 C 65.5,143.167 65.5,148.833 65.5,154.5C 66.5,154.5 67.5,154.5 68.5,154.5C 68.3345,150.486 68.5012,146.486 69,142.5C 69.7172,143.044 70.2172,143.711 70.5,144.5C 69.5184,147.962 69.185,151.629 69.5,155.5C 67.8333,155.5 66.1667,155.5 64.5,155.5C 64.1771,149.31 64.5104,143.31 65.5,137.5 Z"/></g>
<g><path style="opacity:1" fill="#262524" d="M 52.5,151.5 C 52.5,152.5 52.5,153.5 52.5,154.5C 49.1667,154.5 45.8333,154.5 42.5,154.5C 42.5,148.833 42.5,143.167 42.5,137.5C 43.8333,137.5 45.1667,137.5 46.5,137.5C 46.5,142.167 46.5,146.833 46.5,151.5C 48.5,151.5 50.5,151.5 52.5,151.5 Z"/></g>
<g><path style="opacity:1" fill="#8e8d8d" d="M 92.5,147.5 C 92.5,148.833 92.5,150.167 92.5,151.5C 94.7354,151.205 96.7354,151.539 98.5,152.5C 96.1667,152.5 93.8333,152.5 91.5,152.5C 91.2155,150.585 91.5489,148.919 92.5,147.5 Z"/></g>
<g><path style="opacity:1" fill="#818180" d="M 52.5,151.5 C 53.4345,152.568 53.7678,153.901 53.5,155.5C 49.6286,155.815 45.9619,155.482 42.5,154.5C 45.8333,154.5 49.1667,154.5 52.5,154.5C 52.5,153.5 52.5,152.5 52.5,151.5 Z"/></g>
<g><path style="opacity:1" fill="#7b7a79" d="M 65.5,167.5 C 65.681,169.029 66.0143,170.696 66.5,172.5C 65.1667,173.5 63.8333,174.5 62.5,175.5C 63.5896,176.609 63.5896,177.609 62.5,178.5C 61.2801,178.113 60.6135,177.28 60.5,176C 61.9787,173.029 63.6454,170.196 65.5,167.5 Z"/></g>
<g><path style="opacity:1" fill="#6f6e6e" d="M 49.5,171.5 C 49.2882,173.384 48.2882,174.717 46.5,175.5C 47.2003,175.787 47.8669,176.12 48.5,176.5C 46.9122,179.218 45.5788,179.052 44.5,176C 44.9903,174.018 45.9903,172.351 47.5,171C 48.4368,170.308 49.1034,170.475 49.5,171.5 Z"/></g>
<g><path style="opacity:1" fill="#c5c4c4" d="M 58.5,170.5 C 58.1667,171.167 57.8333,171.833 57.5,172.5C 55.4862,172.392 53.8195,173.058 52.5,174.5C 51.8333,175.167 51.1667,175.833 50.5,176.5C 49.8333,176.5 49.1667,176.5 48.5,176.5C 47.8669,176.12 47.2003,175.787 46.5,175.5C 48.2882,174.717 49.2882,173.384 49.5,171.5C 52.5176,171.296 55.5176,170.963 58.5,170.5 Z"/></g>
<g><path style="opacity:1" fill="#434241" d="M 34.5,171.5 C 35.4972,171.47 36.1639,171.97 36.5,173C 36.1223,174.635 35.4556,176.135 34.5,177.5C 34.0798,175.674 34.0798,173.674 34.5,171.5 Z"/></g>
<g><path style="opacity:1" fill="#383736" d="M 27.5,176.5 C 26.8333,177.833 26.1667,177.833 25.5,176.5C 26.2927,173.581 27.6261,170.915 29.5,168.5C 29.8333,168.667 30.1667,168.833 30.5,169C 29.0087,171.308 28.0087,173.808 27.5,176.5 Z"/></g>
<g><path style="opacity:1" fill="#4e4e4d" d="M 42.5,175.5 C 41.2452,178.647 39.5785,178.98 37.5,176.5C 38.8356,173.49 40.1689,170.49 41.5,167.5C 41.9059,168.557 41.9059,169.891 41.5,171.5C 45.0132,171.869 45.3465,173.202 42.5,175.5 Z"/></g>
<g><path style="opacity:1" fill="#e9e9e8" d="M 42.5,175.5 C 38.6929,176.257 38.5262,175.257 42,172.5C 42.4828,173.448 42.6495,174.448 42.5,175.5 Z"/></g>
<g><path style="opacity:1" fill="#272625" d="M 57.5,172.5 C 57.8333,171.833 58.1667,171.167 58.5,170.5C 58.9334,172.068 58.9334,174.235 58.5,177C 56.1403,176.36 55.807,174.86 57.5,172.5 Z"/></g>
<g><path style="opacity:1" fill="#474645" d="M 52.5,174.5 C 52.6882,176.103 52.1882,177.437 51,178.5C 50.5357,177.906 50.369,177.239 50.5,176.5C 51.1667,175.833 51.8333,175.167 52.5,174.5 Z"/></g>
<g><path style="opacity:1" fill="#8b8b8a" d="M 25.5,176.5 C 26.1667,177.833 26.8333,177.833 27.5,176.5C 29.3904,176.703 30.8904,176.037 32,174.5C 32.5074,175.996 32.0074,177.163 30.5,178C 28.0982,178.814 25.7649,178.647 23.5,177.5C 23.9569,176.702 24.6236,176.369 25.5,176.5 Z"/></g>
<g><path style="opacity:1" fill="#515150" d="M 53.5,187.5 C 54.4972,187.47 55.1639,187.97 55.5,189C 54.4267,190.416 54.4267,191.75 55.5,193C 54.9747,193.692 54.3081,194.192 53.5,194.5C 53.2725,192.06 53.2725,189.727 53.5,187.5 Z"/></g>
<g><path style="opacity:1" fill="#6d6c6b" d="M 36.5,187.5 C 38.1992,187.34 39.8659,187.506 41.5,188C 40.1666,190.009 38.5,191.676 36.5,193C 40.5007,195.563 40.0007,197.397 35,198.5C 32.2657,197.709 31.9324,196.376 34,194.5C 34.8261,196.405 35.9928,196.739 37.5,195.5C 34.4986,192.945 34.1653,190.278 36.5,187.5 Z"/></g>
<g><path style="opacity:1" fill="#555453" d="M 44.5,187.5 C 45.552,187.351 46.552,187.517 47.5,188C 45.7237,189.671 45.3904,191.504 46.5,193.5C 45.7261,194.711 44.8928,194.711 44,193.5C 44,192.167 44,190.833 44,189.5C 43.0201,191.059 42.1867,192.726 41.5,194.5C 40.5402,191.411 41.5402,189.078 44.5,187.5 Z"/></g>
<g><path style="opacity:1" fill="#444342" d="M 50.5,183.5 C 51.3764,183.369 52.0431,183.702 52.5,184.5C 51.3598,187.923 50.0265,191.256 48.5,194.5C 48.1667,194.167 47.8333,193.833 47.5,193.5C 49.3124,190.397 50.3124,187.064 50.5,183.5 Z"/></g>
<g><path style="opacity:1" fill="#979696" d="M 63.5,187.5 C 64.5,187.5 65.5,187.5 66.5,187.5C 65.7437,189.613 65.5771,191.613 66,193.5C 64.6439,194.38 63.1439,194.714 61.5,194.5C 61.3939,191.921 62.0605,189.588 63.5,187.5 Z"/></g>
<g><path style="opacity:1" fill="#504f4f" d="M 32.5,181.5 C 33.7736,182.189 33.7736,183.023 32.5,184C 33.3081,184.308 33.9747,184.808 34.5,185.5C 33.4179,185.749 32.0846,185.915 30.5,186C 29.6005,188.192 28.6005,190.358 27.5,192.5C 29.3381,193.189 31.0048,193.522 32.5,193.5C 29.8938,194.652 27.2272,194.818 24.5,194C 26.7945,191.282 27.7945,188.115 27.5,184.5C 29.9328,184.727 31.5994,183.727 32.5,181.5 Z"/></g>
<g><path style="opacity:1" fill="#4a4949" d="M 59.5,186.5 C 60.2891,186.783 60.9558,187.283 61.5,188C 60.0611,188.991 59.0611,190.324 58.5,192C 60.9659,192.93 60.7993,193.763 58,194.5C 57.5,194.167 57,193.833 56.5,193.5C 56.9602,190.844 57.9602,188.51 59.5,186.5 Z"/></g>
<g><path style="opacity:1" fill="#6a6a69" d="M 83.5,200.5 C 84.2389,200.369 84.9056,200.536 85.5,201C 83.4746,202.194 83.1413,203.694 84.5,205.5C 83.4825,206.852 82.1492,207.852 80.5,208.5C 81.6034,208.998 82.6034,209.331 83.5,209.5C 81.3833,212.387 80.05,212.054 79.5,208.5C 81.2615,206.065 82.5948,203.398 83.5,200.5 Z"/></g>
<g><path style="opacity:1" fill="#6d6c6c" d="M 53.5,203.5 C 54.9953,203.415 55.9953,204.081 56.5,205.5C 55.1667,206.5 53.8333,207.5 52.5,208.5C 55.1667,209.5 55.1667,210.5 52.5,211.5C 51.2801,211.113 50.6135,210.28 50.5,209C 51.1242,206.915 52.1242,205.082 53.5,203.5 Z"/></g>
<g><path style="opacity:1" fill="#424140" d="M 57.5,205.5 C 58.9464,204.387 60.6131,204.22 62.5,205C 60.0065,206.467 58.3399,208.633 57.5,211.5C 57.5608,209.439 57.5608,207.439 57.5,205.5 Z"/></g>
<g><path style="opacity:1" fill="#1d1c1b" d="M 67.5,207.5 C 66.913,206.233 66.913,205.233 67.5,204.5C 68.7759,205.614 68.7759,206.614 67.5,207.5 Z"/></g>
<g><path style="opacity:1" fill="#4b4a49" d="M 77.5,202.5 C 80.1003,204.244 79.9336,205.577 77,206.5C 76.3162,207.784 76.4829,208.951 77.5,210C 76.3325,211.784 75.3325,211.784 74.5,210C 74.9776,207.22 75.9776,204.72 77.5,202.5 Z"/></g>
<g><path style="opacity:1" fill="#3c3c3b" d="M 34.5,205.5 C 35.9464,204.387 37.6131,204.22 39.5,205C 37.0065,206.467 35.3399,208.633 34.5,211.5C 34.5608,209.439 34.5608,207.439 34.5,205.5 Z"/></g>
<g><path style="opacity:1" fill="#4f4e4d" d="M 28.5,201.5 C 29.2389,201.369 29.9056,201.536 30.5,202C 29.269,203.183 29.269,204.349 30.5,205.5C 31.6869,204.106 32.3535,204.273 32.5,206C 32.1667,206.5 31.8333,207 31.5,207.5C 27.9005,206.269 26.9005,207.436 28.5,211C 23.7891,212.169 22.9558,211.336 26,208.5C 27.1362,206.257 27.9695,203.924 28.5,201.5 Z"/></g>
<g><path style="opacity:1" fill="#414040" d="M 41.5,205.5 C 42.209,204.596 43.209,204.263 44.5,204.5C 43.8617,206.46 43.8617,208.293 44.5,210C 44,210.5 43.5,211 43,211.5C 41.8869,210.289 40.7202,210.289 39.5,211.5C 38.2009,209.693 38.3676,208.027 40,206.5C 40.1287,210.46 41.2954,210.294 43.5,206C 42.9056,205.536 42.2389,205.369 41.5,205.5 Z"/></g>
<g><path style="opacity:1" fill="#444443" d="M 63.5,204.5 C 64.4778,204.811 65.1445,205.478 65.5,206.5C 64.6667,208.167 63.8333,209.833 63,211.5C 62.9822,209.203 63.1489,206.869 63.5,204.5 Z"/></g>
<g><path style="opacity:1" fill="#626261" d="M 48.5,203.5 C 48.5403,205.343 48.8736,207.343 49.5,209.5C 48.2954,211.138 46.9621,211.471 45.5,210.5C 46.7019,208.22 47.7019,205.886 48.5,203.5 Z"/></g>
<g><path style="opacity:1" fill="#353434" d="M 67.5,207.5 C 67.6882,209.103 67.1882,210.437 66,211.5C 65.2274,209.648 65.7274,208.314 67.5,207.5 Z"/></g>
<g><path style="opacity:1" fill="#363635" d="M 71.5,204.5 C 72.2389,204.369 72.9056,204.536 73.5,205C 72.2736,207.37 71.4403,209.536 71,211.5C 70.6664,209.153 70.833,206.819 71.5,204.5 Z"/></g>
</svg>
